<?xml version="1.0" encoding="utf-8"?>
<!-- Svg Vector Icons : http://www.onlinewebfonts.com/icon -->
<!DOCTYPE svg PUBLIC "-//W3C//DTD SVG 1.1//EN" "http://www.w3.org/Graphics/SVG/1.1/DTD/svg11.dtd">
<svg version="1.1" xmlns="http://www.w3.org/2000/svg" xmlns:xlink="http://www.w3.org/1999/xlink" x="0px" y="0px" viewBox="0 0 1000 1000" enable-background="new 0 0 1000 1000" xml:space="preserve">
<metadata> Svg Vector Icons : http://www.onlinewebfonts.com/icon </metadata>
<g><path d="M710,220c0,38.7,31.3,70,70,70s70-31.3,70-70s-31.3-70-70-70S710,181.3,710,220L710,220z"/><path d="M686.7,523.3C686.7,626.4,603,710,500,710c-103.1,0-186.7-83.6-186.7-186.7c0-103,83.6-186.6,186.7-186.6C603,336.7,686.7,420.2,686.7,523.3z"/><path d="M660.8,430c-32.4-55.6-91.9-93.3-160.8-93.3S371.6,374.5,339.2,430H660.8z"/><path d="M803.3,10H196.7C93.6,10,10,93.6,10,196.7v606.7C10,906.4,93.6,990,196.7,990h606.7C906.4,990,990,906.4,990,803.3V196.7C990,93.6,906.4,10,803.3,10z M850,803.3c0,25.7-20.9,46.7-46.7,46.7H196.7c-25.7,0-46.7-20.9-46.7-46.7V430V103.3h46.7V430h46.7V103.3H290v320.1C327.6,344.8,407.2,290,500,290c95.4,0,177.5,57.7,213.6,140H850V803.3z M896.7,286c0,28-22.7,50.7-50.7,50.7H714.1c-28.1,0-50.7-22.7-50.7-50.7V154.1c0-28,22.7-50.8,50.7-50.8h131.9c28,0,50.7,22.7,50.7,50.8L896.7,286L896.7,286z"/></g>
</svg>